<svg width="33" height="30" viewBox="0 0 33 30" fill="none" xmlns="http://www.w3.org/2000/svg">
<path d="M11.0834 29.3965C12.4133 29.3965 13.4915 28.3183 13.4915 26.9884C13.4915 25.6585 12.4133 24.5804 11.0834 24.5804C9.7535 24.5804 8.67539 25.6585 8.67539 26.9884C8.67539 28.3183 9.7535 29.3965 11.0834 29.3965Z" fill="black"/>
<path d="M27.9397 29.3965C29.2696 29.3965 30.3477 28.3183 30.3477 26.9884C30.3477 25.6585 29.2696 24.5804 27.9397 24.5804C26.6098 24.5804 25.5317 25.6585 25.5317 26.9884C25.5317 28.3183 26.6098 29.3965 27.9397 29.3965Z" fill="black"/>
<path d="M32.214 4.77276C32.0448 4.56586 31.8317 4.39922 31.5901 4.28493C31.3485 4.17065 31.0845 4.1116 30.8173 4.11206H7.9146L7.45331 1.49482C7.40412 1.21604 7.25827 0.963498 7.04139 0.781566C6.8245 0.599633 6.55044 0.499941 6.26735 0.5H1.45127C1.13195 0.5 0.8257 0.626852 0.599902 0.852649C0.374105 1.07845 0.247253 1.38469 0.247253 1.70402C0.247253 2.02334 0.374105 2.32959 0.599902 2.55539C0.8257 2.78119 1.13195 2.90804 1.45127 2.90804H5.25748L8.69345 22.3815C8.74263 22.6603 8.88848 22.9129 9.10537 23.0948C9.32226 23.2767 9.59632 23.3764 9.87941 23.3764H29.1437C29.463 23.3764 29.7693 23.2495 29.9951 23.0237C30.2209 22.7979 30.3477 22.4917 30.3477 22.1723C30.3477 21.853 30.2209 21.5468 29.9951 21.321C29.7693 21.0952 29.463 20.9683 29.1437 20.9683H10.8893L10.4649 18.5603H28.6501C29.0676 18.5598 29.4722 18.415 29.7952 18.1505C30.1183 17.8859 30.3401 17.5179 30.423 17.1087L32.5902 6.27252C32.6424 6.01027 32.6358 5.7397 32.5707 5.48034C32.5056 5.22098 32.3838 4.9793 32.214 4.77276Z" fill="black"/>
</svg>
